<svg width="338" height="342" xmlns="http://www.w3.org/2000/svg" version="1.0" preserveAspectRatio="xMidYMid meet">
 <g>
  <title>Layer 1</title>
  <path fill="#e5e5e5" stroke="null" d="m11.3,0.69999l-11.3,0.4l0,157.90001c0,110.4 0.3,159.4 1.1,163c1.5,7.2 6.2,12.9 13.4,16.5l6,3l148.5,0l148.5,0l6,-3c7.2,-3.6 11.9,-9.3 13.40001,-16.5c1.5,-7.2 1.5,-294.8 0,-302c-1.50001,-7.2 -6.20001,-12.9 -13.40001,-16.50001l-6,-3l-147.5,0c-81.1,-0.1 -152.6,0.1 -158.7,0.2zm217.2,127.40001c32.5,56.2 59.2,102.5 59.3,103c0.2,0.5 -11.8,0.9 -27,0.9l-27.3,0l-4.9,-8.8l-4.9,-8.7l-32.4,0.3l-32.3,0.3l-1.6,2.4c-2.1,3.3 -1.4,11.3 1.2,13.2c1.4,1 8.3,1.3 30.1,1.3l28.3,0l0,6.8c0,12.5 -4.2,21.1 -12.3,25.5c-3.9,2 -5.9,2.2 -25.4,2.7c-11.6,0.3 -21.5,0.9 -22,1.3c-0.4,0.5 -0.9,11.1 -1.1,23.5c-0.2,19.7 -0.5,22.9 -1.9,23.9c-1.2,0.9 -6.4,1.3 -17.3,1.3c-13.9,0 -15.9,-0.2 -17.3,-1.8c-1.5,-1.7 -1.7,-7.2 -1.9,-54l-0.3,-52.1l-6.5,11.4l-6.5,11.4l-27.3,0.1c-15.4,0 -27.2,-0.4 -27,-0.9c0.8,-2.3 118.3,-205.1 118.8,-205.1c0.3,0 27.1,46 59.5,102.1z" id="svg_2"/>
  <path fill="#e5e5e5" d="m151.7,149.9c-9.2,15.9 -16.7,29.4 -16.7,30c0,0.8 9.8,1.1 34,1.1c23.2,0 34,-0.3 34,-1.1c0,-1.3 -33.2,-58.9 -34,-58.9c-0.3,0 -8.1,13 -17.3,28.9z" id="svg_3"/>
 </g>

</svg>